<?xml version="1.0" encoding="UTF-8"?><svg id="Layer_1" xmlns="http://www.w3.org/2000/svg" viewBox="0 0 50 50"><defs><style>.cls-1{fill:none;stroke:#313131;stroke-linecap:round;stroke-linejoin:round;}.cls-2{fill:#7bbee4;}.cls-3{fill:#313131;}</style></defs><rect class="cls-2" x="6.35" y="33.33" width="7.27" height="6.56"/><polyline class="cls-1" points="47.56 31.65 47.56 15.33 25.39 2.86 3.23 15.33 3.23 36.1"/><rect class="cls-1" x="3.23" y="40.26" width="6.93" height="6.93"/><line class="cls-1" x1="39.42" y1="44.12" x2="41.07" y2="44.12"/><path class="cls-1" d="M43.36,42.53c-1.28,0-2.32,1.04-2.32,2.32s1.04,2.32,2.32,2.32,2.32-1.04,2.32-2.32-1.04-2.32-2.32-2.32Z"/><path class="cls-1" d="M23.22,44.86c0,1.28,1.04,2.32,2.32,2.32s2.32-1.04,2.32-2.32-1.04-2.32-2.32-2.32-2.32,1.04-2.32,2.32Z"/><rect class="cls-2" x="21.24" y="27.81" width="18.18" height="16.31"/><polyline class="cls-1" points="27.82 44.12 39.42 44.12 39.42 27.5 21.24 27.5 21.24 44.12 23.26 44.12"/><line class="cls-1" x1="6.7" y1="40.26" x2="6.7" y2="41.87"/><rect class="cls-1" x="6.7" y="33.33" width="6.93" height="6.93"/><line class="cls-1" x1="10.16" y1="33.33" x2="10.16" y2="34.95"/><rect class="cls-1" x="10.16" y="40.26" width="6.93" height="6.93"/><line class="cls-1" x1="13.62" y1="40.26" x2="13.62" y2="41.87"/><polyline class="cls-1" points="7.39 30.56 7.39 20.87 25.39 20.87 43.25 20.87 43.25 29.68"/><polyline class="cls-1" points="23.78 16.71 25.39 16.71 27.01 16.71"/><path class="cls-1" d="M45.64,44.12h1.02c.5,0,.9-.4,.9-.9v-2.71c0-.19-.04-.37-.11-.55l-1.67-4.41c-.4-.97-1.27-1.67-2.3-1.84l-4.05-.67"/><line class="cls-1" x1="3.23" y1="47.18" x2="47.56" y2="47.18"/><circle class="cls-3" cx="25.56" cy="44.88" r="2.87"/><circle class="cls-3" cx="43.49" cy="44.88" r="2.87"/></svg>